<?xml version="1.0"?>
<!DOCTYPE svg PUBLIC "-//W3C//DTD SVG 1.1//EN" "http://www.w3.org/Graphics/SVG/1.1/DTD/svg11.dtd">
<svg width="75.48000000000002mm" height="35.48000000000002mm" viewBox="0 0 75.48000000000002 35.48000000000002" xmlns="http://www.w3.org/2000/svg" version="1.1">
<g id="Part__Feature002" transform="translate(33.316923,12.703942) scale(1,-1)">
<circle cx="-15.576922546785575" cy="9.213941623743434" r="1.25" stroke="#191919" stroke-width="0.35 px" style="stroke-width:0.35;stroke-miterlimit:4;stroke-dasharray:none;stroke-linecap:square;fill:#c0c0c0"/>
<circle cx="24.423077453214432" cy="-19.286058376256555" r="1.25" stroke="#191919" stroke-width="0.35 px" style="stroke-width:0.35;stroke-miterlimit:4;stroke-dasharray:none;stroke-linecap:square;fill:#c0c0c0"/>
<path id="Part__Feature002_f0002"  d="M 35.173077453214425 11.963941623743448 L 35.173077453214425 8.713941623743448 L 35.173077453214425 8.713941623743448 L 35.173077453214425 11.963941623743448 L 35.173077453214425 11.963941623743448 Z " stroke="#191919" stroke-width="0.35 px" style="stroke-width:0.35;stroke-miterlimit:4;stroke-dasharray:none;stroke-linecap:square;fill:#c0c0c0;fill-opacity:1.0;fill-rule: evenodd"/>
<path id="Part__Feature002_f0003"  d="M 35.173077453214425 8.713941623743448 A 3 3 0 0 1 38.1731 5.71394L 38.17307745321443 5.713941623743449 A 3 3 0 0 0 35.1731 8.71394L 35.173077453214425 8.713941623743448 Z " stroke="#191919" stroke-width="0.35 px" style="stroke-width:0.35;stroke-miterlimit:4;stroke-dasharray:none;stroke-linecap:square;fill:#c0c0c0;fill-opacity:1.0;fill-rule: evenodd"/>
<path id="Part__Feature002_f0004"  d="M 38.17307745321443 5.713941623743449 L 41.42307745321443 5.713941623743451 L 41.42307745321443 5.713941623743451 L 38.17307745321443 5.713941623743449 L 38.17307745321443 5.713941623743449 Z " stroke="#191919" stroke-width="0.35 px" style="stroke-width:0.35;stroke-miterlimit:4;stroke-dasharray:none;stroke-linecap:square;fill:#c0c0c0;fill-opacity:1.0;fill-rule: evenodd"/>
<path id="Part__Feature002_f0005"  d="M 41.42307745321443 5.713941623743451 L 41.42307745321444 -21.03605837625655 L 41.42307745321444 -21.03605837625655 L 41.42307745321443 5.713941623743451 L 41.42307745321443 5.713941623743451 Z " stroke="#191919" stroke-width="0.35 px" style="stroke-width:0.35;stroke-miterlimit:4;stroke-dasharray:none;stroke-linecap:square;fill:#c0c0c0;fill-opacity:1.0;fill-rule: evenodd"/>
<path id="Part__Feature002_f0006"  d="M 41.42307745321444 -21.03605837625655 A 1 1 0 0 0 40.4231 -22.0361L 40.42307745321444 -22.03605837625655 A 1 1 0 0 1 41.4231 -21.0361L 41.42307745321444 -21.03605837625655 Z " stroke="#191919" stroke-width="0.35 px" style="stroke-width:0.35;stroke-miterlimit:4;stroke-dasharray:none;stroke-linecap:square;fill:#c0c0c0;fill-opacity:1.0;fill-rule: evenodd"/>
<path id="Part__Feature002_f0007"  d="M 40.42307745321444 -22.03605837625655 L -26.326922546785568 -22.036058376256566 L -26.326922546785568 -22.036058376256566 L 40.42307745321444 -22.03605837625655 L 40.42307745321444 -22.03605837625655 Z " stroke="#191919" stroke-width="0.35 px" style="stroke-width:0.35;stroke-miterlimit:4;stroke-dasharray:none;stroke-linecap:square;fill:#c0c0c0;fill-opacity:1.0;fill-rule: evenodd"/>
<path id="Part__Feature002_f0008"  d="M -26.326922546785568 -22.036058376256566 L -26.326922546785568 -18.78605837625657 L -26.326922546785568 -18.78605837625657 L -26.326922546785568 -22.036058376256566 L -26.326922546785568 -22.036058376256566 Z " stroke="#191919" stroke-width="0.35 px" style="stroke-width:0.35;stroke-miterlimit:4;stroke-dasharray:none;stroke-linecap:square;fill:#c0c0c0;fill-opacity:1.0;fill-rule: evenodd"/>
<path id="Part__Feature002_f0009"  d="M -26.326922546785568 -18.78605837625657 A 3 3 0 0 1 -29.3269 -15.7861L -29.32692254678557 -15.78605837625657 A 3 3 0 0 0 -26.3269 -18.7861L -26.326922546785568 -18.78605837625657 Z " stroke="#191919" stroke-width="0.35 px" style="stroke-width:0.35;stroke-miterlimit:4;stroke-dasharray:none;stroke-linecap:square;fill:#c0c0c0;fill-opacity:1.0;fill-rule: evenodd"/>
<path id="Part__Feature002_f0010"  d="M -29.32692254678557 -15.78605837625657 L -32.57692254678557 -15.78605837625657 L -32.57692254678557 -15.78605837625657 L -29.32692254678557 -15.78605837625657 L -29.32692254678557 -15.78605837625657 Z " stroke="#191919" stroke-width="0.35 px" style="stroke-width:0.35;stroke-miterlimit:4;stroke-dasharray:none;stroke-linecap:square;fill:#c0c0c0;fill-opacity:1.0;fill-rule: evenodd"/>
<path id="Part__Feature002_f0011"  d="M -32.57692254678557 -15.78605837625657 L -32.576922546785575 10.96394162374343 L -32.576922546785575 10.96394162374343 L -32.57692254678557 -15.78605837625657 L -32.57692254678557 -15.78605837625657 Z " stroke="#191919" stroke-width="0.35 px" style="stroke-width:0.35;stroke-miterlimit:4;stroke-dasharray:none;stroke-linecap:square;fill:#c0c0c0;fill-opacity:1.0;fill-rule: evenodd"/>
<path id="Part__Feature002_f0012"  d="M -32.576922546785575 10.96394162374343 A 1 1 0 0 0 -31.5769 11.9639L -31.57692254678558 11.96394162374343 A 1 1 0 0 1 -32.5769 10.9639L -32.576922546785575 10.96394162374343 Z " stroke="#191919" stroke-width="0.35 px" style="stroke-width:0.35;stroke-miterlimit:4;stroke-dasharray:none;stroke-linecap:square;fill:#c0c0c0;fill-opacity:1.0;fill-rule: evenodd"/>
<path id="Part__Feature002_f0013"  d="M -31.57692254678558 11.96394162374343 L 35.173077453214425 11.963941623743448 L 35.173077453214425 11.963941623743448 L -31.57692254678558 11.96394162374343 L -31.57692254678558 11.96394162374343 Z " stroke="#191919" stroke-width="0.35 px" style="stroke-width:0.35;stroke-miterlimit:4;stroke-dasharray:none;stroke-linecap:square;fill:#c0c0c0;fill-opacity:1.0;fill-rule: evenodd"/>
<path id="Part__Feature002_f0014"  d="M -32.576922546785575 10.96394162374343 L -32.57692254678557 -15.78605837625657 L -29.32692254678557 -15.78605837625657 A 3 3 0 0 0 -26.3269 -18.7861L -26.326922546785568 -22.036058376256566 L 40.42307745321444 -22.03605837625655 A 1 1 0 0 1 41.4231 -21.0361L 41.42307745321443 5.713941623743451 L 38.17307745321443 5.713941623743449 A 3 3 0 0 0 35.1731 8.71394L 35.173077453214425 11.963941623743448 L -31.57692254678558 11.96394162374343 A 1 1 0 0 1 -32.5769 10.9639Z M -16.826922546785575 9.213941623743434 A 1.25 1.25 0 0 0 -14.3269 9.21394A 1.25 1.25 0 0 0 -16.8269 9.21394Z M 23.173077453214432 -19.286058376256555 A 1.25 1.25 0 0 0 25.6731 -19.2861A 1.25 1.25 0 0 0 23.1731 -19.2861Z " stroke="#191919" stroke-width="0.35 px" style="stroke-width:0.35;stroke-miterlimit:4;stroke-dasharray:none;stroke-linecap:square;fill:#c0c0c0;fill-opacity:1.0;fill-rule: evenodd"/>
<circle cx="-15.576922546785575" cy="9.213941623743434" r="1.25" stroke="#191919" stroke-width="0.35 px" style="stroke-width:0.35;stroke-miterlimit:4;stroke-dasharray:none;stroke-linecap:square;fill:#c0c0c0"/>
<title>b'1551K PCB'</title>
</g>
</svg>